<?xml version="1.0" encoding="utf-8"?>
<!-- Generator: Adobe Illustrator 24.0.0, SVG Export Plug-In . SVG Version: 6.00 Build 0)  -->
<svg version="1.1" id="レイヤー_1" xmlns="http://www.w3.org/2000/svg" xmlns:xlink="http://www.w3.org/1999/xlink" x="0px"
	 y="0px" viewBox="0 0 48 48" style="enable-background:new 0 0 48 48;" xml:space="preserve">
<title>ppt</title>
<path d="M33,42.5c-1.9,0-3.9-0.6-5.7-1.2C18.8,38.7,8.1,26.2,6.2,19.9C5.6,18,4,12.8,7.8,9.2l0.1-0.1l3.6-2.9
	c1.3-1.2,3.4-1.1,4.7,0.2l0,0l6.6,6.7c1.3,1.3,1.4,3.4,0.2,4.7L20.2,21l7.6,7.2l2.7-2.6c1.3-1.3,3.4-1.3,4.8-0.1l0.1,0.1l6.2,6.3
	c1.3,1.3,1.4,3.4,0.2,4.7l-2.9,3.3C37,41.9,35,42.5,33,42.5z M9.8,11.4C8.1,13,7.9,15.3,9,19.1c1.7,5.5,11.8,17.2,19.2,19.4
	c4.5,1.5,6.6,1.4,8.4-0.4l2.8-3.2c0.2-0.2,0.1-0.5,0-0.6L33.2,28c-0.2-0.1-0.5-0.3-0.7,0l-3,2.9c-1,1-2.5,1-3.5,0L17.8,23
	c-0.9-0.9-1-2.4-0.3-3.4l0.1-0.1l3.1-3.6c0.2-0.2,0.1-0.5,0-0.7L14,8.6c-0.2-0.2-0.5-0.2-0.6,0L9.8,11.4z M27.5,28.6
	C27.4,28.6,27.4,28.6,27.5,28.6L27.5,28.6z M28.1,28.6L28.1,28.6L28.1,28.6z"/>
</svg>
