<?xml version="1.0" encoding="utf-8"?>
<!-- Generator: Adobe Illustrator 24.0.0, SVG Export Plug-In . SVG Version: 6.00 Build 0)  -->
<svg version="1.1" id="レイヤー_1" xmlns="http://www.w3.org/2000/svg" xmlns:xlink="http://www.w3.org/1999/xlink" x="0px"
	 y="0px" viewBox="0 0 48 48" style="enable-background:new 0 0 48 48;" xml:space="preserve">
<g>
	<ellipse cx="16.7" cy="20.1" rx="2.1" ry="2.1"/>
	<ellipse cx="31.3" cy="20.1" rx="2.1" ry="2.1"/>
	<path d="M24,35.2c-7.2,0-8.7-5.3-8.7-5.5c-0.2-0.8,0.3-1.6,1.1-1.8c0.8-0.2,1.6,0.2,1.8,1c0,0.2,1.1,3.3,5.9,3.3
		c4.9,0,5.8-3.3,5.9-3.3c0.2-0.8,1-1.3,1.8-1.1c0.8,0.2,1.3,1,1.1,1.8C32.7,29.9,31.2,35.2,24,35.2z"/>
	<path d="M24,46C11.9,46,2,36.1,2,24S11.9,2,24,2s22,9.9,22,22S36.1,46,24,46z M24,5C13.5,5,5,13.5,5,24s8.5,19,19,19s19-8.5,19-19
		S34.5,5,24,5z"/>
</g>
</svg>
