<?xml version="1.0" encoding="utf-8"?>
<!-- Generator: Adobe Illustrator 24.2.0, SVG Export Plug-In . SVG Version: 6.00 Build 0)  -->
<svg version="1.1" id="レイヤー_1" xmlns="http://www.w3.org/2000/svg" xmlns:xlink="http://www.w3.org/1999/xlink" x="0px"
	 y="0px" viewBox="0 0 48 48" style="enable-background:new 0 0 48 48;" xml:space="preserve">
<g>
	<path d="M43.9,37c-1.7-1.7-7.3-5-8.7-5.5c-1.4-0.5-3.3,0.8-3.9,2.5c-0.6,1.7-1.5,1.4-1.5,1.4s-3.3-1.6-9.1-8.4s-6.8-10.4-6.8-10.4
		s-0.1-0.9,1.7-1.2c1.8-0.3,3.3-2,3.1-3.4c-0.2-1.5-2.6-7.5-3.9-9.5c-1.3-2-4.3-1.3-5-0.9C9.1,1.9,2,5.6,3.3,13.6
		c1.3,8.1,5.1,14.8,9.5,19.9c4.4,5.2,10.3,10.1,18,12.8C38.6,49,43.4,42.6,44,42C44.5,41.4,45.7,38.6,43.9,37z"/>
</g>
</svg>
