<?xml version="1.0" encoding="utf-8"?>
<!-- Generator: Adobe Illustrator 24.0.0, SVG Export Plug-In . SVG Version: 6.00 Build 0)  -->
<svg version="1.1" id="レイヤー_1" xmlns="http://www.w3.org/2000/svg" xmlns:xlink="http://www.w3.org/1999/xlink" x="0px"
	 y="0px" viewBox="0 0 48 48" style="enable-background:new 0 0 48 48;" xml:space="preserve">
<title>ppt</title>
<path d="M43.4,4.2H4.7c-1.4,0-2.5,1.1-2.5,2.5v34.6c0,1.4,1.1,2.5,2.5,2.5h38.7c1.4,0,2.5-1.1,2.5-2.5V6.7
	C45.9,5.3,44.8,4.2,43.4,4.2z M42.9,7.2v27.4l-10.2-9.7l-0.1-0.1c-1.1-0.8-2.5-0.7-3.3,0.1L24.7,29L13.9,18.4c-1-1-2.5-1-3.5,0
	l-5.2,4.9V7.2H42.9z M5.2,40.8V27.4l6.9-6.5l10.8,10.6c1,1,2.5,1,3.5,0.1l4.6-4.1l11.9,11.3v2.1L5.2,40.8L5.2,40.8z"/>
</svg>
