<?xml version="1.0" encoding="utf-8"?>
<!-- Generator: Adobe Illustrator 24.2.0, SVG Export Plug-In . SVG Version: 6.00 Build 0)  -->
<svg version="1.1" id="レイヤー_1" xmlns="http://www.w3.org/2000/svg" xmlns:xlink="http://www.w3.org/1999/xlink" x="0px"
	 y="0px" viewBox="0 0 48 48" style="enable-background:new 0 0 48 48;" xml:space="preserve">
<style type="text/css">
	.st0{fill:#4B4B4B;}
</style>
<polygon class="st0" points="74.5,277 74.5,277 74.5,277.1 "/>
<path class="st0" d="M-55.5,277c0,0,0,0.1,0,0.1v-0.2C-55.5,277-55.5,277-55.5,277z"/>
<g>
	<path d="M24,31c4.1,0,7.5-3.4,7.5-7.5v-15C31.5,4.4,28.1,1,24,1c-4.1,0-7.5,3.4-7.5,7.5v15C16.5,27.6,19.9,31,24,31z"/>
	<path d="M36.8,19C36.8,19,36.8,19,36.8,19C36.8,19,36.8,19,36.8,19c-0.9,0-1.6,0.7-1.6,1.6v2.8c0,3.1-1.2,5.8-3.3,7.9
		c-2,2-4.8,3.3-7.9,3.3c-3.1,0-5.8-1.2-7.9-3.3c-2-2-3.3-4.8-3.3-7.9v-2.8c0-0.9-0.7-1.6-1.6-1.6c-0.9,0-1.6,0.7-1.6,1.6v2.8
		c0,7.4,5.6,13.5,12.8,14.3v6.3h-2.7c-0.8,0-1.5,0.6-1.5,1.5v0c0,0.8,0.7,1.5,1.5,1.5h8.8c0.8,0,1.5-0.7,1.5-1.5v0
		c0-0.8-0.7-1.5-1.5-1.5h-2.7v-6.3c7.2-0.8,12.8-6.9,12.8-14.3v-2.8C38.4,19.8,37.7,19,36.8,19z"/>
</g>
</svg>
