<?xml version="1.0" encoding="utf-8"?>
<!-- Generator: Adobe Illustrator 24.2.0, SVG Export Plug-In . SVG Version: 6.00 Build 0)  -->
<svg version="1.1" id="レイヤー_1" xmlns="http://www.w3.org/2000/svg" xmlns:xlink="http://www.w3.org/1999/xlink" x="0px"
	 y="0px" viewBox="0 0 48 48" style="enable-background:new 0 0 48 48;" xml:space="preserve">
<path d="M43.6,5.3H4.4C2.5,5.3,1,6.8,1,8.7v30.7c0,1.9,1.5,3.4,3.4,3.4h39.2c1.9,0,3.4-1.5,3.4-3.4V8.7C47,6.8,45.5,5.3,43.6,5.3z
	 M17.9,11.1c2.2,0,4,1.8,4,4c0,2.2-1.8,4-4,4c-2.2,0-4-1.8-4-4C13.9,12.9,15.7,11.1,17.9,11.1z M5.6,38.1l7.9-12.3
	c0.5-0.7,1.2-1.1,2-1.1c0.8,0,1.6,0.4,2,1.1c0.4,0.6,1,1,1.7,1c0.7,0,1.3-0.3,1.7-1l4.7-7.1c0.5-0.7,1.2-1.1,2-1.1
	c0.8,0,1.6,0.4,2,1.1l12.7,19.4H5.6z"/>
</svg>
