<?xml version="1.0" encoding="utf-8"?>
<!-- Generator: Adobe Illustrator 24.2.0, SVG Export Plug-In . SVG Version: 6.00 Build 0)  -->
<svg version="1.1" id="レイヤー_1" xmlns="http://www.w3.org/2000/svg" xmlns:xlink="http://www.w3.org/1999/xlink" x="0px"
	 y="0px" viewBox="0 0 48 48" style="enable-background:new 0 0 48 48;" xml:space="preserve">
<g>
	<path d="M24,21.2c-3.1,0-5.6,2.5-5.6,5.6s2.5,5.6,5.6,5.6s5.6-2.5,5.6-5.6S27.1,21.2,24,21.2z"/>
	<path d="M44,13.2h-5.3c-1.2,0-2.2-0.7-2.7-1.8l-1.6-3.5c-0.5-1.1-1.5-1.8-2.7-1.8H16.3c-1.2,0-2.2,0.7-2.7,1.8L12,11.4
		c-0.5,1.1-1.5,1.8-2.7,1.8H4c-1.6,0-3,1.3-3,3v22.7c0,1.7,1.3,3,3,3h21.9H44c1.6,0,3-1.3,3-3V16.2C47,14.5,45.7,13.2,44,13.2z
		 M24,37.3c-5.7,0-10.4-4.7-10.4-10.4S18.3,16.4,24,16.4s10.4,4.7,10.4,10.5S29.7,37.3,24,37.3z"/>
</g>
</svg>
