<?xml version="1.0" encoding="utf-8"?>
<!-- Generator: Adobe Illustrator 24.2.0, SVG Export Plug-In . SVG Version: 6.00 Build 0)  -->
<svg version="1.1" id="レイヤー_1" xmlns="http://www.w3.org/2000/svg" xmlns:xlink="http://www.w3.org/1999/xlink" x="0px"
	 y="0px" viewBox="0 0 48 48" style="enable-background:new 0 0 48 48;" xml:space="preserve">
<g>
	<path d="M40.6,28.1c0,0-1.6,0-3,0c-2.7,0-6.5,0-6.5,0c-2.5-0.3-3.3-4.6-2.1-10.5c0.7-3.6,2.2-6.4,2.2-9.3C31.2,4.2,28,1,24,1
		c-4,0-7.2,3.2-7.2,7.2c0,2.9,1.5,5.8,2.2,9.3c1.2,5.9,0.5,10.2-2.1,10.5c0,0-3.8,0-6.5,0c-1.4,0-3,0-3,0c-2,0-3.7,1.6-3.7,3.7v8.7
		h40.6v-8.7C44.3,29.7,42.7,28.1,40.6,28.1z"/>
	<rect x="6.8" y="43.4" width="34.5" height="3.6"/>
</g>
</svg>
