<?xml version="1.0" encoding="utf-8"?>
<!-- Generator: Adobe Illustrator 24.0.0, SVG Export Plug-In . SVG Version: 6.00 Build 0)  -->
<svg version="1.1" id="レイヤー_1" xmlns="http://www.w3.org/2000/svg" xmlns:xlink="http://www.w3.org/1999/xlink" x="0px"
	 y="0px" viewBox="0 0 48 48" style="enable-background:new 0 0 48 48;" xml:space="preserve">
<g>
	<path d="M24,30.8c2.6,0,5-1,6.8-2.9c1.8-1.8,2.7-4.2,2.7-6.7V10.5C33.4,5.3,29.2,1,24,1s-9.4,4.2-9.4,9.5v10.8
		C14.6,26.5,18.8,30.8,24,30.8z M17.3,10.5c0-3.8,3-6.8,6.8-6.8s6.8,3,6.8,6.8v10.7c0,1.8-0.6,3.5-1.9,4.8s-3,2-4.8,2
		c-3.8,0-6.8-3-6.8-6.8L17.3,10.5L17.3,10.5z"/>
	<path d="M39.6,23.6c-0.7-0.2-1.5,0.2-1.7,0.9c-0.1,0.4-3.5,10.7-13.9,10.7S10.2,25,10.1,24.5c-0.2-0.7-1-1.1-1.7-0.9
		s-1.1,1-0.9,1.7c0,0.1,3.8,11.6,15.1,12.5v7.8c0,0.7,0.6,1.3,1.3,1.3s1.3-0.6,1.3-1.3v-7.8c11.4-0.9,15.1-12.4,15.1-12.5
		C40.7,24.6,40.3,23.8,39.6,23.6z"/>
</g>
</svg>
