<?xml version="1.0" encoding="utf-8"?>
<!-- Generator: Adobe Illustrator 24.0.0, SVG Export Plug-In . SVG Version: 6.00 Build 0)  -->
<svg version="1.1" id="レイヤー_1" xmlns="http://www.w3.org/2000/svg" xmlns:xlink="http://www.w3.org/1999/xlink" x="0px"
	 y="0px" viewBox="0 0 48 48" style="enable-background:new 0 0 48 48;" xml:space="preserve">
<title>ppt</title>
<g>
	<path d="M44.5,44.5H3.6c-1.4,0-2.5-1.1-2.5-2.5V11.2c0-1.4,1.1-2.5,2.5-2.5h9.7l2.3-4c0.5-0.7,1.3-1.2,2.1-1.2H30
		c0.9,0,1.7,0.4,2.1,1.2l0.1,0.1l2.3,3.9h9.9c1.4,0,2.5,1.1,2.5,2.5V42C47,43.4,45.9,44.5,44.5,44.5z M4.1,41.5H44V11.7h-9.7
		c-0.9,0-1.7-0.4-2.1-1.2l-0.1-0.1l-2.3-3.9H18.1l-2.3,4c-0.5,0.7-1.3,1.2-2.1,1.2H4.1V41.5z"/>
	<path d="M24,34.9c-5.2,0-9.4-4.2-9.4-9.4s4.2-9.4,9.4-9.4s9.4,4.2,9.4,9.4S29.2,34.9,24,34.9z M24,19.1c-3.5,0-6.4,2.9-6.4,6.4
		s2.9,6.4,6.4,6.4s6.4-2.9,6.4-6.4S27.5,19.1,24,19.1z"/>
</g>
</svg>
